<svg width="182" height="49" viewBox="0 0 182 49" fill="none" xmlns="http://www.w3.org/2000/svg">
<path fill-rule="evenodd" clip-rule="evenodd" d="M172.041 23.5703L167.704 21.4946C164.161 19.785 162.693 17.2198 162.693 15.2048C162.693 12.6403 164.465 10.6859 166.787 10.6859C170.209 10.6859 173.691 14.8994 174.913 20.517L178.761 20.7618V6.90064H175.34L174.179 10.9913C172.774 8.24349 169.475 6.22847 165.81 6.22847C160.555 6.22847 156.156 10.9307 156.156 17.1592C156.156 21.1278 158.295 25.5853 164.343 28.5165L168.681 30.5929C172.102 32.2412 174.179 34.867 174.179 37.3708C174.179 39.9966 172.163 42.0117 169.414 42.0117C165.443 42.0117 161.289 37.3708 159.7 31.1423L155.912 30.7149V43.4773L159.333 44.1487L160.739 40.058C162.388 43.844 166.42 46.7139 170.697 46.7139C176.012 46.7139 180.411 41.9503 180.411 35.5998C180.411 30.7149 177.479 26.1961 172.041 23.5703ZM158.661 4.7636C158.661 1.89302 156.951 0 154.935 0C152.918 0 151.574 1.83238 151.574 4.33619C153.469 5.43503 154.935 8.30487 154.996 11.0527C156.829 10.5639 158.661 7.75545 158.661 4.7636ZM114.674 29.0053C114.674 25.7687 111.863 23.4483 108.076 23.4483H104.471V33.8295L108.808 34.0122C112.474 34.1956 114.674 31.8751 114.674 29.0053ZM104.471 19.663H107.525C111.008 19.663 113.574 17.8306 113.574 15.2661C113.574 12.8237 111.375 10.9307 108.381 10.9307H104.471V19.663ZM122.554 29.5547C122.554 34.623 117.545 38.165 110.886 37.8596C106.426 37.6762 98.9115 37.4322 93.4745 37.3708V34.0736C95.4291 34.0122 97.1396 33.2187 97.1396 31.2643V13.1897C97.1396 11.2361 95.4291 10.5033 93.4745 10.4419V7.14466H109.114C116.139 7.14466 121.394 10.2585 121.394 14.4727C121.394 18.1974 117.301 21.1278 111.68 21.3726V21.4946C117.851 21.5552 122.554 24.7919 122.554 29.5547ZM141.555 10.4419C144.121 10.4419 145.221 11.8461 144.121 13.6785L139.233 22.2274L134.285 13.3731C133.308 11.7241 134.346 10.4419 136.79 10.4419V7.14466H121.821V10.4419C123.472 10.5639 125.243 11.6021 125.976 12.8843L133.614 25.6467V33.2801C133.614 35.3558 131.963 36.2106 129.703 36.0886V39.3858C132.391 39.6299 138.867 40.424 144.855 41.2182V37.9202C142.594 37.4322 140.945 36.2106 140.945 34.1956V26.5629L148.764 13.0071C149.497 11.7855 151.025 10.6859 152.368 10.4419V7.14466H141.555V10.4419ZM46.5386 25.3819L42.8268 12.4569L38.9205 25.9254L46.5386 25.3819ZM92.0688 34.0736V37.3708C88.9534 37.3102 79.1779 37.4928 76.4287 37.6156V34.3176C78.8724 34.1349 79.789 32.6686 78.5061 30.959L74.6131 25.8567L70.5026 31.2643C68.9748 33.2187 69.5867 34.623 72.458 34.501V37.7982C66.1043 37.9816 52.3574 39.2024 46.1872 39.9966V36.6994C48.2032 36.394 49.242 34.6843 48.6309 32.6686L47.6017 29.0859L37.7952 29.8061L36.1676 35.4164C35.6793 37.0654 36.6566 38.0422 38.4278 37.7376L39.7114 37.5542V40.8514C37.0228 41.2182 30.2415 42.2557 27.7364 42.7445V39.4465C29.5083 39.0191 30.9747 37.9816 31.4023 36.6387L39.1166 10.9765C38.0912 10.6889 37.0916 10.4959 36.2897 10.4419V7.14466H48.5694L56.7565 32.7906C57.2455 34.3176 58.8332 35.2338 60.2995 35.2338C61.9494 35.2338 63.6599 34.0736 65.2483 32.0585L72.3692 22.9151L64.5765 12.701C63.5378 11.3581 61.6438 10.4419 60.0554 10.4419V7.14466H75.39V10.4419C73.1912 10.4419 72.5187 11.7241 73.7409 13.3731L77.5739 18.4806L81.3168 13.7392C82.7824 11.8461 81.9271 10.4419 79.6055 10.4419V7.14466H91.6412V10.4419C89.8693 10.5033 87.7311 11.6635 86.3869 13.3117L79.7069 21.3245L87.6705 31.9358C88.6478 33.2187 90.3583 34.0122 92.0688 34.0736ZM1.34428 7.14466H26.2094V10.9307L9.04227 42.4391C14.7849 41.2182 18.3279 40.546 20.4668 38.531C22.2387 36.8214 22.9105 34.1956 23.4602 29.9215L26.2094 29.6775V42.9885C18.6949 44.3321 7.45384 46.7745 0 48.7282V44.9429L18.2673 10.9913C12.8295 10.9913 9.22501 11.1747 6.96481 13.0071C5.13224 14.4113 4.27625 16.9144 4.09351 20.6398H1.34428V7.14466Z" fill="#003087"/>
<path fill-rule="evenodd" clip-rule="evenodd" d="M179.608 46.5205H179.781C179.975 46.5205 180.08 46.3948 180.08 46.2403C180.08 46.0961 179.975 45.9896 179.781 45.9896H179.608V46.5205ZM180.234 46.9058L180.813 47.6475H180.119L179.636 46.9635H179.608V47.6475H178.999V45.5082H179.888C180.389 45.5082 180.726 45.8254 180.726 46.2403C180.726 46.5486 180.543 46.8 180.234 46.9058ZM181.498 46.5967C181.498 45.6428 180.774 44.9292 179.81 44.9292C178.846 44.9292 178.123 45.6428 178.123 46.5967C178.123 47.5513 178.846 48.2642 179.81 48.2642C180.774 48.2642 181.498 47.5513 181.498 46.5967ZM181.999 46.5967C181.999 47.8116 181.064 48.7271 179.81 48.7271C178.556 48.7271 177.621 47.8116 177.621 46.5967C177.621 45.3825 178.556 44.4663 179.81 44.4663C181.064 44.4663 181.999 45.3825 181.999 46.5967Z" fill="#003087"/>
</svg>
