<svg xmlns="http://www.w3.org/2000/svg" version="1.1" xmlns:xlink="http://www.w3.org/1999/xlink" xmlns:svgjs="http://svgjs.dev/svgjs" viewBox="0 0 10.57311172950977 12.243235508814566"><g transform="matrix(1,0,0,1,0.947620928231447,7.71200208058312)"><rect width="10.57311172950977" height="12.243235508814566" x="-0.9476209282314468" y="-7.71200208058312" fill="#fffcf7"></rect><g><path d=" M 0.7578552246093759 0.018000000000000016 L 0.7578552246093759 1.068 L 0.894355224609376 1.068 L 0.894355224609376 0.6045 L 0.9603552246093761 0.6045 Q 1.002355224609376 0.6045 1.030105224609376 0.6120000000000001 Q 1.057855224609376 0.6195 1.080355224609376 0.6375000000000001 Q 1.102855224609376 0.6555 1.122355224609376 0.684 Q 1.141855224609376 0.7125000000000001 1.168855224609376 0.7545000000000001 L 1.287355224609376 0.93 Q 1.309855224609376 0.9645 1.3316052246093761 0.9930000000000001 Q 1.353355224609376 1.0215 1.3788552246093762 1.04175 Q 1.404355224609376 1.062 1.4366052246093761 1.074 Q 1.468855224609376 1.086 1.513855224609376 1.086 Q 1.5468552246093759 1.086 1.567855224609376 1.083 Q 1.5888552246093761 1.08 1.609855224609376 1.068 L 1.609855224609376 1.0125 Q 1.602355224609376 1.014 1.5948552246093761 1.01475 Q 1.587355224609376 1.0155 1.579855224609376 1.0155 Q 1.548355224609376 1.0155 1.524355224609376 1.0065 Q 1.5003552246093759 0.9975 1.479355224609376 0.9802500000000001 Q 1.458355224609376 0.9630000000000001 1.438855224609376 0.93825 Q 1.419355224609376 0.9135000000000001 1.398355224609376 0.8820000000000001 Q 1.335355224609376 0.7905 1.3008552246093759 0.7357500000000001 Q 1.2663552246093759 0.681 1.246105224609376 0.651 Q 1.2258552246093761 0.621 1.213105224609376 0.6075 Q 1.200355224609376 0.5940000000000001 1.182355224609376 0.5850000000000001 L 1.1673552246093761 0.5775000000000001 L 1.1673552246093761 0.5715000000000001 Q 1.239355224609376 0.5670000000000001 1.291105224609376 0.54 Q 1.3428552246093761 0.513 1.375855224609376 0.47250000000000003 Q 1.408855224609376 0.43200000000000005 1.423855224609376 0.38475000000000004 Q 1.438855224609376 0.3375 1.438855224609376 0.2925000000000001 Q 1.438855224609376 0.252 1.423105224609376 0.20400000000000007 Q 1.407355224609376 0.15600000000000003 1.369105224609376 0.11475000000000002 Q 1.330855224609376 0.07350000000000001 1.264855224609376 0.04574999999999996 Q 1.198855224609376 0.018000000000000016 1.098355224609376 0.018000000000000016 L 0.7578552246093759 0.018000000000000016 Z M 0.894355224609376 0.08400000000000007 L 1.045855224609376 0.08400000000000007 Q 1.102855224609376 0.08400000000000007 1.1486052246093759 0.10050000000000003 Q 1.194355224609376 0.11699999999999999 1.227355224609376 0.14625 Q 1.260355224609376 0.1755 1.2776052246093759 0.21600000000000008 Q 1.294855224609376 0.25650000000000006 1.294855224609376 0.3045 Q 1.294855224609376 0.3450000000000001 1.279105224609376 0.3862500000000001 Q 1.263355224609376 0.4275000000000001 1.231855224609376 0.46125000000000005 Q 1.200355224609376 0.495 1.154605224609376 0.516 Q 1.1088552246093761 0.537 1.048855224609376 0.537 L 0.894355224609376 0.537 L 0.894355224609376 0.08400000000000007 Z M 1.849790039062501 0.018000000000000016 L 1.849790039062501 1.068 L 2.527790039062501 1.068 L 2.527790039062501 0.9855 L 1.9862900390625011 0.9855 L 1.9862900390625011 0.546 L 2.451290039062501 0.546 L 2.451290039062501 0.4770000000000001 L 1.9862900390625011 0.4770000000000001 L 1.9862900390625011 0.10050000000000003 L 2.527790039062501 0.10050000000000003 L 2.527790039062501 0.018000000000000016 L 1.849790039062501 0.018000000000000016 Z M 2.8007746582031263 0.018000000000000016 L 2.632774658203126 0.018000000000000016 L 3.042274658203126 0.5445000000000001 L 2.6402746582031265 1.068 L 2.7212746582031264 1.068 L 3.0797746582031262 0.5985 L 3.0857746582031265 0.5985 L 3.451774658203126 1.068 L 3.6212746582031263 1.068 L 3.166774658203126 0.48750000000000004 L 3.5252746582031262 0.018000000000000016 L 3.4457746582031263 0.018000000000000016 L 3.1292746582031263 0.4305 L 3.121774658203126 0.4305 L 2.8007746582031263 0.018000000000000016 Z M 3.8612658691406265 1.068 L 4.237765869140627 1.068 Q 4.338265869140626 1.068 4.407265869140627 1.04175 Q 4.476265869140627 1.0155 4.518265869140627 0.9735 Q 4.560265869140626 0.9315 4.579015869140626 0.8782500000000001 Q 4.597765869140626 0.8250000000000001 4.597765869140626 0.7710000000000001 Q 4.597765869140626 0.6855 4.561015869140626 0.6345000000000001 Q 4.524265869140626 0.5835000000000001 4.473265869140627 0.5565 Q 4.4222658691406265 0.5295000000000001 4.368265869140626 0.5205000000000001 Q 4.314265869140627 0.5115000000000001 4.2812658691406265 0.51 L 4.2812658691406265 0.504 Q 4.333765869140627 0.504 4.380265869140627 0.48375 Q 4.426765869140627 0.4635 4.462015869140626 0.43125 Q 4.497265869140627 0.399 4.518265869140627 0.35625000000000007 Q 4.5392658691406265 0.3135 4.5392658691406265 0.26550000000000007 Q 4.5392658691406265 0.22350000000000003 4.521265869140627 0.18000000000000005 Q 4.503265869140627 0.13650000000000007 4.466515869140626 0.10050000000000003 Q 4.429765869140627 0.0645 4.372015869140626 0.04125000000000001 Q 4.314265869140627 0.018000000000000016 4.2362658691406265 0.018000000000000016 L 3.8612658691406265 0.018000000000000016 L 3.8612658691406265 1.068 Z M 3.9977658691406264 1.002 L 3.9977658691406264 0.543 L 4.162765869140626 0.543 Q 4.2362658691406265 0.543 4.290265869140626 0.5625 Q 4.344265869140626 0.5820000000000001 4.379515869140627 0.615 Q 4.414765869140626 0.6480000000000001 4.432015869140626 0.6915 Q 4.449265869140627 0.7350000000000001 4.449265869140627 0.783 Q 4.449265869140627 0.8355 4.430515869140626 0.8760000000000001 Q 4.411765869140626 0.9165000000000001 4.380265869140627 0.9450000000000001 Q 4.348765869140626 0.9735 4.3060158691406265 0.98775 Q 4.263265869140627 1.002 4.215265869140627 1.002 L 3.9977658691406264 1.002 Z M 3.9977658691406264 0.4770000000000001 L 3.9977658691406264 0.08400000000000007 L 4.180765869140626 0.08400000000000007 Q 4.239265869140627 0.08400000000000007 4.280515869140626 0.10050000000000003 Q 4.321765869140626 0.11699999999999999 4.348015869140626 0.14400000000000002 Q 4.374265869140626 0.17100000000000004 4.386265869140626 0.20550000000000002 Q 4.3982658691406264 0.24 4.3982658691406264 0.2745000000000001 Q 4.3982658691406264 0.31800000000000006 4.381015869140627 0.35550000000000004 Q 4.363765869140626 0.393 4.333015869140627 0.42000000000000004 Q 4.302265869140626 0.44700000000000006 4.262515869140627 0.4620000000000001 Q 4.222765869140626 0.4770000000000001 4.177765869140626 0.4770000000000001 L 3.9977658691406264 0.4770000000000001 Z M 4.807690429687502 0.018000000000000016 L 4.807690429687502 0.663 Q 4.807690429687502 0.7245 4.819690429687501 0.7987500000000001 Q 4.831690429687502 0.873 4.8766904296875015 0.9367500000000001 Q 4.9216904296875015 1.0005000000000002 5.010190429687501 1.04325 Q 5.098690429687501 1.086 5.2516904296875015 1.086 Q 5.347690429687502 1.086 5.421940429687502 1.056 Q 5.496190429687502 1.026 5.546440429687501 0.9735 Q 5.596690429687501 0.921 5.622190429687501 0.8512500000000001 Q 5.6476904296875015 0.7815000000000001 5.6476904296875015 0.7020000000000001 L 5.6476904296875015 0.018000000000000016 L 5.581690429687502 0.018000000000000016 L 5.581690429687502 0.6525000000000001 Q 5.581690429687502 0.6855 5.580190429687502 0.7192500000000001 Q 5.5786904296875015 0.7530000000000001 5.571190429687501 0.7867500000000001 Q 5.563690429687502 0.8205 5.547940429687501 0.8535 Q 5.5321904296875015 0.8865000000000001 5.502190429687501 0.9195000000000001 Q 5.448190429687502 0.9780000000000001 5.380690429687501 0.9990000000000001 Q 5.313190429687501 1.02 5.239690429687501 1.02 Q 5.176690429687501 1.02 5.127940429687501 1.0005000000000002 Q 5.079190429687501 0.9810000000000001 5.035690429687501 0.9420000000000001 Q 5.001190429687502 0.912 4.983190429687501 0.8820000000000001 Q 4.965190429687501 0.8520000000000001 4.956190429687502 0.8227500000000001 Q 4.947190429687502 0.7935000000000001 4.9456904296875015 0.7635000000000001 Q 4.944190429687501 0.7335 4.944190429687501 0.7035 L 4.944190429687501 0.018000000000000016 L 4.807690429687502 0.018000000000000016 Z M 5.962646484375002 0.018000000000000016 L 5.962646484375002 1.068 L 6.099146484375002 1.068 L 6.099146484375002 0.6045 L 6.165146484375002 0.6045 Q 6.207146484375002 0.6045 6.234896484375002 0.6120000000000001 Q 6.2626464843750025 0.6195 6.2851464843750025 0.6375000000000001 Q 6.307646484375002 0.6555 6.327146484375002 0.684 Q 6.346646484375002 0.7125000000000001 6.373646484375002 0.7545000000000001 L 6.492146484375002 0.93 Q 6.514646484375002 0.9645 6.536396484375002 0.9930000000000001 Q 6.558146484375002 1.0215 6.583646484375002 1.04175 Q 6.609146484375002 1.062 6.641396484375002 1.074 Q 6.673646484375002 1.086 6.718646484375002 1.086 Q 6.751646484375002 1.086 6.772646484375002 1.083 Q 6.793646484375002 1.08 6.814646484375002 1.068 L 6.814646484375002 1.0125 Q 6.807146484375002 1.014 6.799646484375002 1.01475 Q 6.792146484375002 1.0155 6.784646484375002 1.0155 Q 6.753146484375002 1.0155 6.729146484375002 1.0065 Q 6.705146484375002 0.9975 6.6841464843750025 0.9802500000000001 Q 6.663146484375002 0.9630000000000001 6.643646484375002 0.93825 Q 6.624146484375002 0.9135000000000001 6.603146484375002 0.8820000000000001 Q 6.540146484375002 0.7905 6.505646484375002 0.7357500000000001 Q 6.471146484375002 0.681 6.4508964843750025 0.651 Q 6.430646484375002 0.621 6.417896484375002 0.6075 Q 6.405146484375003 0.5940000000000001 6.387146484375002 0.5850000000000001 L 6.372146484375002 0.5775000000000001 L 6.372146484375002 0.5715000000000001 Q 6.444146484375002 0.5670000000000001 6.4958964843750024 0.54 Q 6.547646484375002 0.513 6.580646484375002 0.47250000000000003 Q 6.6136464843750025 0.43200000000000005 6.628646484375002 0.38475000000000004 Q 6.643646484375002 0.3375 6.643646484375002 0.2925000000000001 Q 6.643646484375002 0.252 6.627896484375002 0.20400000000000007 Q 6.612146484375002 0.15600000000000003 6.573896484375002 0.11475000000000002 Q 6.535646484375002 0.07350000000000001 6.469646484375002 0.04574999999999996 Q 6.4036464843750025 0.018000000000000016 6.303146484375002 0.018000000000000016 L 5.962646484375002 0.018000000000000016 Z M 6.099146484375002 0.08400000000000007 L 6.250646484375002 0.08400000000000007 Q 6.307646484375002 0.08400000000000007 6.353396484375002 0.10050000000000003 Q 6.399146484375002 0.11699999999999999 6.432146484375002 0.14625 Q 6.465146484375002 0.1755 6.482396484375002 0.21600000000000008 Q 6.499646484375002 0.25650000000000006 6.499646484375002 0.3045 Q 6.499646484375002 0.3450000000000001 6.483896484375002 0.3862500000000001 Q 6.468146484375002 0.4275000000000001 6.436646484375002 0.46125000000000005 Q 6.405146484375003 0.495 6.359396484375002 0.516 Q 6.313646484375002 0.537 6.253646484375002 0.537 L 6.099146484375002 0.537 L 6.099146484375002 0.08400000000000007 Z M 8.010081298828128 0.6000000000000001 L 7.713081298828127 0.6000000000000001 L 7.713081298828127 0.6615 L 7.881081298828128 0.6615 L 7.881081298828128 0.933 Q 7.813581298828128 0.9765 7.743081298828128 0.9975 Q 7.672581298828128 1.0185 7.582581298828128 1.0185 Q 7.464081298828128 1.0185 7.375581298828128 0.9825 Q 7.287081298828127 0.9465000000000001 7.228581298828128 0.88275 Q 7.170081298828127 0.8190000000000001 7.140831298828128 0.7312500000000001 Q 7.111581298828128 0.6435000000000001 7.111581298828128 0.5385000000000001 Q 7.111581298828128 0.43500000000000005 7.139331298828128 0.3480000000000001 Q 7.167081298828128 0.261 7.2225812988281275 0.19800000000000006 Q 7.278081298828128 0.135 7.358331298828127 0.10050000000000003 Q 7.438581298828128 0.06600000000000006 7.545081298828127 0.06600000000000006 Q 7.615581298828127 0.06600000000000006 7.677081298828128 0.08100000000000007 Q 7.7385812988281275 0.09600000000000009 7.7865812988281276 0.12 Q 7.834581298828128 0.14400000000000002 7.865331298828128 0.17475000000000007 Q 7.896081298828127 0.20550000000000002 7.905081298828128 0.237 L 8.013081298828128 0.237 Q 7.999581298828128 0.20400000000000007 7.967331298828128 0.16275000000000006 Q 7.935081298828128 0.12150000000000005 7.8795812988281275 0.08550000000000002 Q 7.824081298828128 0.0495000000000001 7.742331298828128 0.02475000000000005 Q 7.660581298828127 0 7.5495812988281275 0 Q 7.422081298828128 0 7.314831298828127 0.03600000000000003 Q 7.207581298828128 0.07200000000000006 7.1295812988281275 0.13950000000000007 Q 7.051581298828127 0.20700000000000007 7.008081298828127 0.30525 Q 6.9645812988281275 0.4035000000000001 6.9645812988281275 0.528 Q 6.9645812988281275 0.6345000000000001 6.998331298828128 0.7342500000000001 Q 7.032081298828127 0.8340000000000001 7.101831298828127 0.9127500000000001 Q 7.171581298828127 0.9915 7.279581298828128 1.03875 Q 7.3875812988281275 1.086 7.537581298828128 1.086 Q 7.650081298828128 1.086 7.7370812988281275 1.06125 Q 7.824081298828128 1.0365 7.881081298828128 1.0065 L 7.881081298828128 1.068 L 8.010081298828128 1.068 L 8.010081298828128 0.6000000000000001 Z M 1.5776059570312513 2.0460000000000003 L 2.2061059570312516 2.0460000000000003 L 2.2061059570312516 2.568 L 2.3426059570312514 2.568 L 2.3426059570312514 1.518 L 2.2061059570312516 1.518 L 2.2061059570312516 1.977 L 1.5776059570312513 1.977 L 1.5776059570312513 1.518 L 1.4411059570312512 1.518 L 1.4411059570312512 2.568 L 1.5776059570312513 2.568 L 1.5776059570312513 2.0460000000000003 Z M 2.777519531250001 1.518 L 2.777519531250001 2.568 L 2.9140195312500015 2.568 L 2.9140195312500015 1.518 L 2.777519531250001 1.518 Z M 3.3489440917968767 2.568 L 3.4854440917968765 2.568 L 3.4854440917968765 2.199 L 3.6549440917968763 2.0175 L 4.053944091796876 2.568 L 4.209944091796876 2.568 L 3.7419440917968765 1.9245 L 4.122944091796876 1.518 L 4.047944091796877 1.518 L 3.4854440917968765 2.109 L 3.4854440917968765 1.518 L 3.3489440917968767 1.518 L 3.3489440917968767 2.568 Z M 4.509942626953126 1.518 L 4.509942626953126 2.568 L 4.646442626953126 2.568 L 4.646442626953126 1.518 L 4.509942626953126 1.518 Z M 5.927367187500001 1.518 L 5.927367187500001 2.3205 L 5.921367187500001 2.3205 L 5.088867187500001 1.5 L 5.081367187500001 1.5 L 5.081367187500001 2.568 L 5.1503671875000006 2.568 L 5.1503671875000006 1.7655 L 5.156367187500001 1.7655 L 5.988867187500001 2.586 L 5.996367187500001 2.586 L 5.996367187500001 1.518 L 5.927367187500001 1.518 Z M 7.326830566406251 2.1 L 7.02983056640625 2.1 L 7.02983056640625 2.1615 L 7.1978305664062505 2.1615 L 7.1978305664062505 2.433 Q 7.130330566406251 2.4765 7.059830566406251 2.4975 Q 6.989330566406251 2.5185 6.899330566406251 2.5185 Q 6.780830566406251 2.5185 6.692330566406251 2.4825 Q 6.60383056640625 2.4465 6.545330566406251 2.38275 Q 6.48683056640625 2.319 6.457580566406251 2.23125 Q 6.428330566406251 2.1435 6.428330566406251 2.0385 Q 6.428330566406251 1.935 6.456080566406251 1.848 Q 6.483830566406251 1.7610000000000001 6.53933056640625 1.698 Q 6.594830566406251 1.635 6.67508056640625 1.6005 Q 6.755330566406251 1.566 6.86183056640625 1.566 Q 6.93233056640625 1.566 6.993830566406251 1.581 Q 7.0553305664062504 1.596 7.1033305664062505 1.62 Q 7.1513305664062505 1.6440000000000001 7.182080566406251 1.67475 Q 7.21283056640625 1.7055 7.2218305664062505 1.737 L 7.329830566406251 1.737 Q 7.316330566406251 1.7040000000000002 7.284080566406251 1.66275 Q 7.251830566406251 1.6215000000000002 7.1963305664062505 1.5855000000000001 Q 7.140830566406251 1.5495 7.059080566406251 1.52475 Q 6.97733056640625 1.5 6.86633056640625 1.5 Q 6.738830566406251 1.5 6.63158056640625 1.536 Q 6.524330566406251 1.572 6.4463305664062505 1.6395 Q 6.36833056640625 1.707 6.32483056640625 1.80525 Q 6.28133056640625 1.9035000000000002 6.28133056640625 2.028 Q 6.28133056640625 2.1345 6.315080566406251 2.2342500000000003 Q 6.34883056640625 2.334 6.41858056640625 2.41275 Q 6.48833056640625 2.4915000000000003 6.596330566406251 2.53875 Q 6.7043305664062505 2.586 6.854330566406251 2.586 Q 6.966830566406251 2.586 7.05383056640625 2.5612500000000002 Q 7.140830566406251 2.5365 7.1978305664062505 2.5065 L 7.1978305664062505 2.568 L 7.326830566406251 2.568 L 7.326830566406251 2.1 Z" fill="#431a10" fill-rule="nonzero"></path></g><g><path d=" M 0.3435 3.0541125 L 0.3435 3.0976125 L 0.1125 3.0976125 L 0.1125 3.2933624999999997 L 0.3075 3.2933624999999997 L 0.3075 3.3368625 L 0.1125 3.3368625 L 0.1125 3.5783625 L 0.06 3.5783625 L 0.06 3.0541125 L 0.3435 3.0541125 Z M 0.4897357177734375 3.0541125 L 0.4897357177734375 3.5783625 L 0.4372357177734375 3.5783625 L 0.4372357177734375 3.0541125 L 0.4897357177734375 3.0541125 Z M 1.01169287109375 3.5783625 L 0.9591928710937501 3.5783625 L 0.6689428710937501 3.1373625 L 0.6689428710937501 3.5783625 L 0.61644287109375 3.5783625 L 0.61644287109375 3.0541125 L 0.6689428710937501 3.0541125 L 0.9591928710937501 3.4943625 L 0.9591928710937501 3.0541125 L 1.01169287109375 3.0541125 L 1.01169287109375 3.5783625 Z M 1.4429234619140625 3.0856125 Q 1.5051734619140624 3.1171124999999997 1.5381734619140626 3.1763624999999998 Q 1.5711734619140625 3.2356125 1.5711734619140625 3.3173624999999998 Q 1.5711734619140625 3.3983624999999997 1.5381734619140626 3.4572374999999997 Q 1.5051734619140624 3.5161124999999998 1.4429234619140625 3.5472375 Q 1.3806734619140624 3.5783625 1.2936734619140624 3.5783625 L 1.1384234619140625 3.5783625 L 1.1384234619140625 3.0541125 L 1.2936734619140624 3.0541125 Q 1.3806734619140624 3.0541125 1.4429234619140625 3.0856125 Z M 1.4605484619140625 3.4774875 Q 1.5179234619140625 3.4201125 1.5179234619140625 3.3173624999999998 Q 1.5179234619140625 3.2138625 1.4605484619140625 3.1557375 Q 1.4031734619140623 3.0976125 1.2936734619140624 3.0976125 L 1.1909234619140625 3.0976125 L 1.1909234619140625 3.5348625 L 1.2936734619140624 3.5348625 Q 1.4031734619140623 3.5348625 1.4605484619140625 3.4774875 Z M 1.727918701171875 3.0541125 L 1.727918701171875 3.5783625 L 1.675418701171875 3.5783625 L 1.675418701171875 3.0541125 L 1.727918701171875 3.0541125 Z M 2.2498758544921875 3.5783625 L 2.1973758544921878 3.5783625 L 1.9071258544921876 3.1373625 L 1.9071258544921876 3.5783625 L 1.8546258544921876 3.5783625 L 1.8546258544921876 3.0541125 L 1.9071258544921876 3.0541125 L 2.1973758544921878 3.4943625 L 2.1973758544921878 3.0541125 L 2.2498758544921875 3.0541125 L 2.2498758544921875 3.5783625 Z M 2.7891064453125 3.2071125 Q 2.7666064453125 3.1553625 2.7204814453125 3.1257375 Q 2.6743564453125 3.0961125 2.6121064453125 3.0961125 Q 2.5536064453125 3.0961125 2.5071064453125 3.1231125 Q 2.4606064453125 3.1501124999999996 2.4336064453125 3.1999874999999998 Q 2.4066064453125 3.2498625 2.4066064453125 3.3158624999999997 Q 2.4066064453125 3.3818625 2.4336064453125 3.4321124999999997 Q 2.4606064453125 3.4823625 2.5071064453125 3.5093625 Q 2.5536064453125 3.5363625 2.6121064453125 3.5363625 Q 2.6668564453125 3.5363625 2.7107314453124998 3.5127375 Q 2.7546064453125 3.4891125 2.7812314453124998 3.4452374999999997 Q 2.8078564453125 3.4013625 2.8116064453125 3.3428625 L 2.5911064453125 3.3428625 L 2.5911064453125 3.3001125 L 2.8671064453125 3.3001125 L 2.8671064453125 3.3383624999999997 Q 2.8633564453124998 3.4073625 2.8296064453125 3.4632375 Q 2.7958564453125 3.5191125 2.7392314453125 3.5513624999999998 Q 2.6826064453125 3.5836125 2.6121064453125 3.5836125 Q 2.5393564453125 3.5836125 2.4801064453125 3.5494874999999997 Q 2.4208564453125 3.5153624999999997 2.3867314453125 3.4542375 Q 2.3526064453125 3.3931125 2.3526064453125 3.3158624999999997 Q 2.3526064453125 3.2386125 2.3867314453125 3.1774875 Q 2.4208564453125 3.1163624999999997 2.4801064453125 3.0822374999999997 Q 2.5393564453125 3.0481125 2.6121064453125 3.0481125 Q 2.6961064453125 3.0481125 2.7591064453125 3.0901125 Q 2.8221064453125 3.1321125 2.8506064453124997 3.2071125 L 2.7891064453125 3.2071125 Z M 3.530083374023437 3.0541125 L 3.3620833740234373 3.3743624999999997 L 3.3620833740234373 3.5783625 L 3.309583374023437 3.5783625 L 3.309583374023437 3.3743624999999997 L 3.1400833740234373 3.0541125 L 3.1993333740234373 3.0541125 L 3.335833374023437 3.3263625 L 3.471583374023437 3.0541125 L 3.530083374023437 3.0541125 Z M 3.717557006835937 3.5494874999999997 Q 3.658307006835937 3.5153624999999997 3.624182006835937 3.4542375 Q 3.590057006835937 3.3931125 3.590057006835937 3.3158624999999997 Q 3.590057006835937 3.2386125 3.624182006835937 3.1774875 Q 3.658307006835937 3.1163624999999997 3.717557006835937 3.0822374999999997 Q 3.776807006835937 3.0481125 3.849557006835937 3.0481125 Q 3.923057006835937 3.0481125 3.9823070068359367 3.0822374999999997 Q 4.041557006835937 3.1163624999999997 4.075307006835937 3.1774875 Q 4.109057006835937 3.2386125 4.109057006835937 3.3158624999999997 Q 4.109057006835937 3.3931125 4.075307006835937 3.4542375 Q 4.041557006835937 3.5153624999999997 3.9823070068359367 3.5494874999999997 Q 3.923057006835937 3.5836125 3.849557006835937 3.5836125 Q 3.776807006835937 3.5836125 3.717557006835937 3.5494874999999997 Z M 3.954557006835937 3.5108625 Q 4.001057006835937 3.4838625 4.028057006835937 3.4332374999999997 Q 4.055057006835937 3.3826125 4.055057006835937 3.3158624999999997 Q 4.055057006835937 3.2491125 4.028057006835937 3.1988624999999997 Q 4.001057006835937 3.1486125 3.954557006835937 3.1216125 Q 3.908057006835937 3.0946124999999998 3.849557006835937 3.0946124999999998 Q 3.791057006835937 3.0946124999999998 3.744557006835937 3.1216125 Q 3.698057006835937 3.1486125 3.671057006835937 3.1988624999999997 Q 3.644057006835937 3.2491125 3.644057006835937 3.3158624999999997 Q 3.644057006835937 3.3826125 3.671057006835937 3.4332374999999997 Q 3.698057006835937 3.4838625 3.744557006835937 3.5108625 Q 3.791057006835937 3.5378624999999997 3.849557006835937 3.5378624999999997 Q 3.908057006835937 3.5378624999999997 3.954557006835937 3.5108625 Z M 4.2627799072265615 3.0541125 L 4.2627799072265615 3.3841125 Q 4.2627799072265615 3.4621125 4.299904907226562 3.4996125 Q 4.337029907226562 3.5371125 4.4015299072265615 3.5371125 Q 4.466029907226562 3.5371125 4.502404907226562 3.4999875 Q 4.538779907226562 3.4628625 4.538779907226562 3.3841125 L 4.538779907226562 3.0541125 L 4.5912799072265615 3.0541125 L 4.5912799072265615 3.3833625 Q 4.5912799072265615 3.4831125 4.538404907226562 3.5333625 Q 4.485529907226562 3.5836125 4.400779907226561 3.5836125 Q 4.316029907226562 3.5836125 4.2631549072265615 3.5333625 Q 4.210279907226562 3.4831125 4.210279907226562 3.3833625 L 4.210279907226562 3.0541125 L 4.2627799072265615 3.0541125 Z M 4.9947421875 3.5783625 L 4.8649921874999995 3.3593625 L 4.768242187499999 3.3593625 L 4.768242187499999 3.5783625 L 4.715742187499999 3.5783625 L 4.715742187499999 3.0541125 L 4.8732421875 3.0541125 Q 4.9609921875 3.0541125 5.0063671874999995 3.0961125 Q 5.0517421874999995 3.1381125 5.0517421874999995 3.2063625 Q 5.0517421874999995 3.2633625 5.019117187499999 3.3034875 Q 4.9864921875 3.3436125 4.9227421875 3.3556125 L 5.0577421875 3.5783625 L 4.9947421875 3.5783625 Z M 4.768242187499999 3.3166124999999997 L 4.8739921875 3.3166124999999997 Q 4.9354921874999995 3.3166124999999997 4.9666171875 3.2866125 Q 4.997742187499999 3.2566125 4.997742187499999 3.2063625 Q 4.997742187499999 3.1546125 4.9677421875 3.1264874999999996 Q 4.9377421875 3.0983625 4.8732421875 3.0983625 L 4.768242187499999 3.0983625 L 4.768242187499999 3.3166124999999997 Z M 5.659963623046875 3.0541125 L 5.659963623046875 3.0976125 L 5.428963623046875 3.0976125 L 5.428963623046875 3.2933624999999997 L 5.623963623046875 3.2933624999999997 L 5.623963623046875 3.3368625 L 5.428963623046875 3.3368625 L 5.428963623046875 3.5783625 L 5.376463623046875 3.5783625 L 5.376463623046875 3.0541125 L 5.659963623046875 3.0541125 Z M 6.032699340820313 3.5783625 L 5.902949340820313 3.3593625 L 5.806199340820313 3.3593625 L 5.806199340820313 3.5783625 L 5.7536993408203125 3.5783625 L 5.7536993408203125 3.0541125 L 5.911199340820313 3.0541125 Q 5.998949340820313 3.0541125 6.044324340820313 3.0961125 Q 6.089699340820313 3.1381125 6.089699340820313 3.2063625 Q 6.089699340820313 3.2633625 6.0570743408203125 3.3034875 Q 6.024449340820313 3.3436125 5.960699340820313 3.3556125 L 6.095699340820313 3.5783625 L 6.032699340820313 3.5783625 Z M 5.806199340820313 3.3166124999999997 L 5.911949340820313 3.3166124999999997 Q 5.973449340820313 3.3166124999999997 6.004574340820313 3.2866125 Q 6.035699340820313 3.2566125 6.035699340820313 3.2063625 Q 6.035699340820313 3.1546125 6.005699340820313 3.1264874999999996 Q 5.975699340820313 3.0983625 5.911199340820313 3.0983625 L 5.806199340820313 3.0983625 L 5.806199340820313 3.3166124999999997 Z M 6.2539306640625005 3.0968625 L 6.2539306640625005 3.2926124999999997 L 6.452680664062501 3.2926124999999997 L 6.452680664062501 3.3361125 L 6.2539306640625005 3.3361125 L 6.2539306640625005 3.5348625 L 6.475180664062501 3.5348625 L 6.475180664062501 3.5783625 L 6.2014306640625 3.5783625 L 6.2014306640625 3.0533625 L 6.475180664062501 3.0533625 L 6.475180664062501 3.0968625 L 6.2539306640625005 3.0968625 Z M 6.638673706054688 3.0968625 L 6.638673706054688 3.2926124999999997 L 6.837423706054689 3.2926124999999997 L 6.837423706054689 3.3361125 L 6.638673706054688 3.3361125 L 6.638673706054688 3.5348625 L 6.859923706054689 3.5348625 L 6.859923706054689 3.5783625 L 6.586173706054688 3.5783625 L 6.586173706054688 3.0533625 L 6.859923706054689 3.0533625 L 6.859923706054689 3.0968625 L 6.638673706054688 3.0968625 Z M 7.275416748046876 3.0856125 Q 7.3376667480468765 3.1171124999999997 7.370666748046876 3.1763624999999998 Q 7.403666748046876 3.2356125 7.403666748046876 3.3173624999999998 Q 7.403666748046876 3.3983624999999997 7.370666748046876 3.4572374999999997 Q 7.3376667480468765 3.5161124999999998 7.275416748046876 3.5472375 Q 7.213166748046876 3.5783625 7.126166748046876 3.5783625 L 6.970916748046876 3.5783625 L 6.970916748046876 3.0541125 L 7.126166748046876 3.0541125 Q 7.213166748046876 3.0541125 7.275416748046876 3.0856125 Z M 7.2930417480468765 3.4774875 Q 7.350416748046876 3.4201125 7.350416748046876 3.3173624999999998 Q 7.350416748046876 3.2138625 7.2930417480468765 3.1557375 Q 7.235666748046876 3.0976125 7.126166748046876 3.0976125 L 7.023416748046876 3.0976125 L 7.023416748046876 3.5348625 L 7.126166748046876 3.5348625 Q 7.235666748046876 3.5348625 7.2930417480468765 3.4774875 Z M 7.611411987304689 3.5494874999999997 Q 7.5521619873046895 3.5153624999999997 7.518036987304689 3.4542375 Q 7.483911987304689 3.3931125 7.483911987304689 3.3158624999999997 Q 7.483911987304689 3.2386125 7.518036987304689 3.1774875 Q 7.5521619873046895 3.1163624999999997 7.611411987304689 3.0822374999999997 Q 7.670661987304689 3.0481125 7.743411987304689 3.0481125 Q 7.816911987304689 3.0481125 7.876161987304689 3.0822374999999997 Q 7.935411987304689 3.1163624999999997 7.969161987304689 3.1774875 Q 8.002911987304689 3.2386125 8.002911987304689 3.3158624999999997 Q 8.002911987304689 3.3931125 7.969161987304689 3.4542375 Q 7.935411987304689 3.5153624999999997 7.876161987304689 3.5494874999999997 Q 7.816911987304689 3.5836125 7.743411987304689 3.5836125 Q 7.670661987304689 3.5836125 7.611411987304689 3.5494874999999997 Z M 7.848411987304689 3.5108625 Q 7.894911987304689 3.4838625 7.921911987304689 3.4332374999999997 Q 7.948911987304689 3.3826125 7.948911987304689 3.3158624999999997 Q 7.948911987304689 3.2491125 7.921911987304689 3.1988624999999997 Q 7.894911987304689 3.1486125 7.848411987304689 3.1216125 Q 7.801911987304689 3.0946124999999998 7.743411987304689 3.0946124999999998 Q 7.684911987304689 3.0946124999999998 7.638411987304689 3.1216125 Q 7.591911987304689 3.1486125 7.564911987304689 3.1988624999999997 Q 7.537911987304689 3.2491125 7.537911987304689 3.3158624999999997 Q 7.537911987304689 3.3826125 7.564911987304689 3.4332374999999997 Q 7.591911987304689 3.4838625 7.638411987304689 3.5108625 Q 7.684911987304689 3.5378624999999997 7.743411987304689 3.5378624999999997 Q 7.801911987304689 3.5378624999999997 7.848411987304689 3.5108625 Z M 8.618634887695315 3.0608625 L 8.618634887695315 3.5783625 L 8.566134887695315 3.5783625 L 8.566134887695315 3.1651124999999998 L 8.381634887695315 3.5783625 L 8.343384887695315 3.5783625 L 8.158884887695315 3.1666125 L 8.158884887695315 3.5783625 L 8.106384887695315 3.5783625 L 8.106384887695315 3.0608625 L 8.161884887695315 3.0608625 L 8.362134887695314 3.5093625 L 8.562384887695314 3.0608625 L 8.618634887695315 3.0608625 Z" fill="#3e7742" fill-rule="nonzero"></path></g><g clip-path="url(&quot;#SvgjsClipPath1023&quot;)"><path d=" M 7.1292346556043675 -3.635102492564999 L 5.9228916639923135 -5.724552622868212 L 5.9228916639923135 -3.635102492564999 L 7.1292346556043675 -3.635102492564999 Z" fill="#b88059" transform="matrix(1,0,0,1,0,0)" fill-rule="nonzero"></path><path d=" M 5.9228916639923135 -3.635102492564999 L 5.9228916639923135 -5.724552622868212 L 4.716548672380259 -3.635102492564999 L 5.9228916639923135 -3.635102492564999 Z" fill="#3e7742" transform="matrix(1,0,0,1,0,0)" fill-rule="nonzero"></path><path d=" M 4.162815524626486 -3.6398216564690955 L 2.8571873443624183 -5.901236399468958 L 2.8571873443624183 -3.6398216564690955 L 4.162815524626486 -3.6398216564690955 Z" fill="#b88059" transform="matrix(1,0,0,1,0,0)" fill-rule="nonzero"></path><path d=" M 2.8571873443624183 -3.6398216564690955 L 2.8571873443624183 -5.901236399468958 L 1.5515591640983513 -3.6398216564690955 L 2.8571873443624183 -3.6398216564690955 Z" fill="#3e7742" transform="matrix(1,0,0,1,0,0)" fill-rule="nonzero"></path><path d=" M 6.180886957154756 -3.6504962117236914 L 4.383089755967802 -6.764381152351673 L 4.383089755967802 -3.6504962117236914 L 6.180886957154756 -3.6504962117236914 Z" fill="#b88059" transform="matrix(1,0,0,1,0,0)" fill-rule="nonzero"></path><path d=" M 4.383089755967802 -3.6504962117236914 L 4.383089755967802 -6.764381152351673 L 2.585281804976968 -3.6504962117236914 L 4.383089755967802 -3.6504962117236914 Z" fill="#3e7742" transform="matrix(1,0,0,1,0,0)" fill-rule="nonzero"></path><path d=" M 6.621628916307262 -2.755704036213051 L 7.129245405408248 -3.634908996095127 L 6.392550595586776 -4.910899967057159 L 5.92335390555923 -4.098225543399347 L 5.09112558864048 -5.539677495709558 L 4.383122005379448 -4.313382868092942 L 3.675118422118415 -5.539677495709558 L 2.8571443451468914 -4.122896343308006 L 2.3437552113613944 -5.012120120407891 L 1.5486244676386285 -3.634908996095127 L 2.056240956739616 -2.755704036213051 L 2.5638466960367214 -3.634908996095127 L 2.5754027352096225 -3.634908996095127 L 3.0072223571402605 -2.8869806412172068 L 2.34664690860559 -2.8869806412172068 L 3.0916728164354335 -1.5965419338380782 L 3.3359943590602663 -2.0197294632516565 L 2.8611647717986726 -2.0197294632516565 L 3.3618691370036826 -2.8869806412172068 L 3.158816091480959 -2.8869806412172068 L 3.287598741984545 -3.110039071763902 L 3.778047794286348 -2.2605465698110327 L 4.29225391316686 -3.1511678214155476 L 4.690372899928153 -2.4616109016156296 L 3.907324935768495 -2.4616109016156296 L 4.4149414248694825 -1.582405941733553 L 5.159644838582873 -2.8722856593108292 L 5.787186139788868 -1.7853729888252223 L 6.294791879085975 -2.664577948707299 L 5.746111139156632 -2.664577948707299 L 6.210169422928693 -3.468362284554889 L 6.621628916307262 -2.755704036213051 Z" fill="#431a10" transform="matrix(1,0,0,1,0,0)" fill-rule="nonzero"></path><path d=" M 4.624756097033838 -1.9456525647023906 L 4.288899974355748 -2.5273782017642894 L 4.960622969515812 -2.5273782017642894 L 4.624756097033838 -1.9456525647023906 Z" fill="#b88059" transform="matrix(1,0,0,1,0,0)" fill-rule="nonzero"></path><path d=" M 6.2857942932369335 -2.1740428979744424 L 5.949927420754961 -2.7557685350363412 L 6.621650415915026 -2.7557685350363412 L 6.2857942932369335 -2.1740428979744424 Z" fill="#b88059" transform="matrix(1,0,0,1,0,0)" fill-rule="nonzero"></path><path d=" M 5.067175025591901 -1.3896834577412083 L 4.731308153109928 -1.971409094803107 L 5.403031148269992 -1.971409094803107 L 5.067175025591901 -1.3896834577412083 Z" fill="#b88059" transform="matrix(1,0,0,1,0,0)" fill-rule="nonzero"></path><path d=" M 4.428185183251821 -0.25 L 4.183852890823106 -0.6731875294135783 L 4.672506725876654 -0.6731875294135783 L 4.428185183251821 -0.25 Z" fill="#b88059" transform="matrix(1,0,0,1,0,0)" fill-rule="nonzero"></path><path d=" M 2.800578877121026 -1.2165471164214452 L 2.556257334496193 -1.6397453956389052 L 3.044911169549741 -1.6397453956389052 L 2.800578877121026 -1.2165471164214452 Z" fill="#3e7742" transform="matrix(1,0,0,1,0,0)" fill-rule="nonzero"></path><path d=" M 3.554785117465899 -1.7627769010657452 L 3.218928994787808 -2.344502538127645 L 3.8906412401439905 -2.344502538127645 L 3.554785117465899 -1.7627769010657452 Z" fill="#3e7742" transform="matrix(1,0,0,1,0,0)" fill-rule="nonzero"></path><path d=" M 3.877666226858696 -1.2035613533322707 L 3.541810104180605 -1.7852869903941686 L 4.213533099340669 -1.7852869903941686 L 3.877666226858696 -1.2035613533322707 Z" fill="#3e7742" transform="matrix(1,0,0,1,0,0)" fill-rule="nonzero"></path><path d=" M 4.195763673524105 -0.6524941569411737 L 3.859907550846015 -1.2342197940030735 L 4.531619796202197 -1.2342197940030735 L 4.195763673524105 -0.6524941569411737 Z" fill="#3e7742" transform="matrix(1,0,0,1,0,0)" fill-rule="nonzero"></path><path d=" M 2.5183965252246043 -1.7169074879022395 L 2.182540402546513 -2.298633124964139 L 2.8542526479026957 -2.298633124964139 L 2.5183965252246043 -1.7169074879022395 Z" fill="#3e7742" transform="matrix(1,0,0,1,0,0)" fill-rule="nonzero"></path><path d=" M 5.558742057497408 -1.3896834577412083 L 5.222885934819317 -1.971409094803107 L 5.8946089299793805 -1.971409094803107 L 5.558742057497408 -1.3896834577412083 Z" fill="#3e7742" transform="matrix(1,0,0,1,0,0)" fill-rule="nonzero"></path><path d=" M 4.846374053860377 -1.007291434058942 L 4.602041761431662 -1.4304789634725195 L 5.090706346289092 -1.4304789634725195 L 4.846374053860377 -1.007291434058942 Z" fill="#b88059" transform="matrix(1,0,0,1,0,0)" fill-rule="nonzero"></path><path d=" M 3.012221015945283 -0.8499895538570241 L 2.767888723516568 -1.2731770832706024 L 3.256542558570116 -1.2731770832706024 L 3.012221015945283 -0.8499895538570241 Z" fill="#b88059" transform="matrix(1,0,0,1,0,0)" fill-rule="nonzero"></path><path d=" M 6.057651205454163 -1.7788156084573439 L 5.813318913025448 -2.2020031378709213 L 6.301983497882877 -2.2020031378709213 L 6.057651205454163 -1.7788156084573439 Z" fill="#b88059" transform="matrix(1,0,0,1,0,0)" fill-rule="nonzero"></path></g></g><defs><clipPath id="SvgjsClipPath1023"><path d=" M 1.5486244676386285 -6.764381152351673 h 5.58062093776962 v 6.514381152351673 h -5.58062093776962 Z"></path></clipPath></defs></svg>